# AST/ASF file generated using VICON BodyLanguage
# -----------------------------------------------
:version 1.10
:name VICON
:units
  mass 1.0
  length 0.45
  angle deg
:documentation
   .ast/.asf automatically generated from VICON data using
   VICON BodyBuilder and BodyLanguage model FoxedUp or BRILLIANT.MOD
:root
   order TX TY TZ RX RY RZ
   axis XYZ
   position 0 0 0  
   orientation 0 0 0 
:bonedata
  begin
     id 1 
     name lhipjoint
     direction 0.547975 -0.797114 0.253638 
     length 2.36201 
     axis 0 0 0  XYZ
  end
  begin
     id 2 
     name lfemur
     direction 0.34202 -0.939693 0  
     length 7.69075  
     axis 0 0 20  XYZ
    dof rx ry rz
    limits (-160.0 20.0)
           (-70.0 70.0)
           (-60.0 70.0)
  end
  begin
     id 3 
     name ltibia
     direction 0.34202 -0.939693 0   
     length 7.91399   
     axis 0 0 20   XYZ
    dof rx
    limits (-10.0 170.0)
  end
  begin
     id 4 
     name lfoot
     direction 0.0705293 -0.193778 0.978507   
     length 2.13618   
     axis -90 7.62852e-016 20   XYZ
    dof rx rz
    limits (-45.0 90.0)
           (-70.0 20.0)
  end
  begin
     id 5 
     name ltoes
     direction 1.53592e-011 -4.21925e-011 1   
     length 1.07518   
     axis -90 7.62852e-016 20   XYZ
    dof rx
    limits (-90.0 20.0)
  end
  begin
     id 6 
     name rhipjoint
     direction -0.57 -0.782963 0.249136   
     length 2.4047  
     axis 0 0 0  XYZ 
  end
  begin
     id 7 
     name rfemur
     direction -0.34202 -0.939693 0   
     length 7.51486   
     axis 0 0 -20   XYZ
    dof rx ry rz
    limits (-160.0 20.0)
           (-70.0 70.0)
           (-70.0 60.0)
  end
  begin
     id 8 
     name rtibia
     direction -0.34202 -0.939693 0   
     length 8.08317   
     axis 0 0 -20   XYZ
    dof rx
    limits (-10.0 170.0)
 end
 begin
     id 9 
     name rfoot
     direction -0.104954 -0.281256 0.953876   
     length 2.30343  
     axis -90 -7.62852e-016 -20   XYZ
    dof rx rz
    limits (-45.0 90.0)
           (-20.0 70.0)
  end
  begin
     id 10 
     name rtoes
     direction -1.53556e-011 -4.21922e-011 1   
     length 1.14803   
     axis -90 -7.62852e-016 -20   XYZ
    dof rx
    limits (-90.0 20.0)
  end
  begin
     id 11 
     name lowerback
     direction -0.0152855 0.99353 -0.11254   
     length 2.05311   
     axis 0 0 0   XYZ
    dof rx ry rz
    limits (-20.0 45.0)
           (-30.0 30.0)
           (-30.0 30.0)
  end
  begin
     id 12 
     name upperback
     direction -0.00157509 0.999443 -0.033332   
     length 2.06353   
     axis 0 0 0   XYZ
    dof rx ry rz
    limits (-20.0 45.0)
           (-30.0 30.0)
           (-30.0 30.0)
  end
  begin
     id 13 
     name thorax
     direction 0.00577788 0.999804 0.0189484   
     length 2.08472   
     axis 0 0 0   XYZ
    dof rx ry rz
    limits (-20.0 45.0)
           (-30.0 30.0)
           (-30.0 30.0)
  end
  begin
     id 14 
     name lowerneck
     direction -1.09301e-005 0.994719 0.10264   
     length 1.76249   
     axis 0 0 0   XYZ
    dof rx ry rz
    limits (-20.0 45.0)
           (-30.0 30.0)
           (-30.0 30.0)
  end
  begin
     id 15 
     name upperneck
     direction 0.0495018 0.988526 -0.142706   
     length 1.77897   
     axis 0 0 0   XYZ
    dof rx ry rz
    limits (-20.0 45.0)
           (-30.0 30.0)
           (-30.0 30.0)
  end
  begin
     id 16
     name head
     direction 0.0142736 0.998114 -0.0597101  
     length 1.78934  
     axis 0 0 0   XYZ
    dof rx ry rz
    limits (-20.0 45.0)
           (-30.0 30.0)
           (-30.0 30.0)
  end
  begin
     id 17 
     name lclavicle
     direction 0.918111 0.396107 -0.0130883  
     length 3.37276  
     axis 0 0 0   XYZ
    dof ry rz
    limits (-20.0 10.0)
           (0.0 20.0)
  end
  begin
     id 18 
     name lhumerus
     direction 1 -4.48975e-011 -3.26108e-027   
     length 5.34298   
     axis 180 -30 -90   XYZ
    dof rx ry rz
    limits (-60.0 90.0)
           (-90.0 90.0)
           (-90.0 90.0)
  end
  begin
     id 19
     name lradius
     direction 1 -4.48964e-011 -8.84413e-028   
     length 3.67262   
     axis 180 -30 -90   XYZ
    dof rx
    limits (-10.0 170.0)
  end
  begin
     id 20
     name lwrist
     direction 1 -4.48991e-011 -1.24264e-027   
     length 1.83631   
     axis -2.17013e-015 90 90   XYZ
    dof ry
    limits (-180.0 0.0)
 end
  begin
     id 21 
     name lhand
     direction 1 -4.48855e-011 -2.48528e-027   
     length 0.599298   
     axis 1.58582e-015 90 90   XYZ
    dof rx rz
    limits (-90.0 90.0)
           (-45.0 45.0)
  end
  begin
     id 22 
     name lfingers
     direction 1 -4.48811e-011 -4.97056e-027   
     length 0.48317   
     axis 3.17164e-015 90 90   XYZ
    dof rx
    limits (0.0 90.0)
  end
  begin
     id 23
     name lthumb
     direction 0.707107 -6.34882e-011 0.707107   
     length 0.693738   
     axis -90 45 2.85299e-015   XYZ
    dof rx rz
    limits (-45.0 45.0)
           (-45.0 45.0)
  end
  begin
     id 24 
     name rclavicle
     direction -0.920511 0.384752 -0.0680135   
     length 3.43787  
     axis 0 0 0   XYZ 
    dof ry rz
    limits (-10.0 20.0)
           (-20.0 0.0)
  end
  begin
     id 25 
     name rhumerus
     direction -0.999976 -0.00330524 0.00603274  
     length 5.5498   
     axis 180 30 90   XYZ
    dof rx ry rz
    limits (-90.0 60.0)
           (-90.0 90.0)
           (-90.0 90.0)
  end
  begin
     id 26 
     name rradius
     direction -1 -4.48967e-011 8.62438e-027   
     length 3.69401   
     axis 180 30 90   XYZ
    dof rx
    limits (-10.0 170.0)
  end
  begin
     id 27 
     name rwrist
     direction -1 -4.4897e-011 9.54866e-027   
     length 1.84701   
     axis -7.69462e-015 -90 -90   XYZ
    dof ry
    limits (-180.0 0.0)
  end
  begin
     id 28
     name rhand
     direction -1 -4.48982e-011 1.90973e-026   
     length 0.638113   
     axis -1.21857e-014 -90 -90   XYZ
    dof rx rz
    limits (-90.0 90.0)
           (-45.0 45.0)
  end
  begin
     id 29
     name rfingers
     direction -1 -4.48936e-011 3.81946e-026   
     length 0.514463   
     axis -2.43714e-014 -90 -90   XYZ
    dof rx
    limits (0.0 90.0)
  end
  begin
     id 30
     name rthumb
     direction -0.707107 -6.34942e-011 0.707107   
     length 0.738669   
     axis -90 -45 -2.85299e-015   XYZ
    dof rx rz
    limits (-45.0 45.0)
           (-45.0 45.0)
  end
:hierarchy
  begin
    root lhipjoint rhipjoint lowerback
    lhipjoint lfemur
    lfemur ltibia
    ltibia lfoot
    lfoot ltoes
    rhipjoint rfemur
    rfemur rtibia
    rtibia rfoot
    rfoot rtoes
    lowerback upperback
    upperback thorax
    thorax lowerneck lclavicle rclavicle
    lowerneck upperneck
    upperneck head
    lclavicle lhumerus
    lhumerus lradius
    lradius lwrist
    lwrist lhand lthumb
    lhand lfingers
    rclavicle rhumerus
    rhumerus rradius
    rradius rwrist
    rwrist rhand rthumb
    rhand rfingers
  end

#!OML:ASF F:\twosubjects\two\Thursday\Session 1\Rory.ASF
:FULLY-SPECIFIED
:DEGREES
147
root 5.12759 18.5024 -7.48933 5.71806 18.7071 1.64058
lowerback 1.70789 0.705577 -4.73346
upperback 5.1043 1.14309 -3.49746
thorax 4.30655 0.475836 -0.945255
lowerneck -4.52327 -0.286834 -7.26661
upperneck 36.7575 5.04169 -9.95043
head 13.4512 0.20198 -2.03468
rclavicle 2.10712e-014 1.51076e-014
rhumerus 32.7474 11.4926 -63.6668
rradius 83.4548
rwrist 35.8381
rhand -35.2127 19.1952
rfingers 7.12502
rthumb -8.35009 -10.6198
lclavicle 2.10712e-014 1.51076e-014
lhumerus -28.3065 12.0807 73.7566
lradius 31.1105
lwrist -19.6547
lhand -13.0701 30.1859
lfingers 7.12502
lthumb 13.0256 59.7592
rfemur -16.2158 5.35282 14.7065
rtibia 21.7002
rfoot -9.61299 -4.57771
rtoes -8.31463
lfemur -10.9481 -7.70145 -13.8124
ltibia 20.6228
lfoot -9.84461 -7.4054
ltoes 10.7402
148
root 5.07473 18.5129 -7.45813 6.06227 19.2509 1.72681
lowerback 1.6646 0.758576 -4.67826
upperback 5.00975 1.2231 -3.78487
thorax 4.23884 0.527291 -1.27172
lowerneck -4.13602 -0.558438 -6.78622
upperneck 36.1724 4.61405 -10.4795
head 13.1056 0.0632437 -2.35451
rclavicle -2.78299e-015 4.77083e-015
rhumerus 32.069 11.1655 -63.6961
rradius 84.4152
rwrist 35.7113
rhand -34.908 20.4176
rfingers 7.12502
rthumb -8.05594 -9.40885
lclavicle -2.78299e-015 4.77083e-015
lhumerus -28.1108 11.8379 73.4406
lradius 31.0296
lwrist -20.0091
lhand -11.5732 31.0408
lfingers 7.12502
lthumb 14.4683 60.5164
rfemur -16.3703 5.04336 14.8447
rtibia 21.7448
rfoot -9.95713 -4.89265
rtoes -9.9796
lfemur -11.6068 -7.27067 -13.7605
ltibia 21.0036
lfoot -9.2814 -7.72558
ltoes 9.81347
149
root 5.02879 18.5214 -7.42798 6.23473 19.7512 1.40412
lowerback 1.6742 0.807177 -4.12599
upperback 4.9156 1.28406 -3.97498
thorax 4.14753 0.585779 -1.77521
lowerneck -3.8911 -0.748706 -6.34995
upperneck 35.5157 4.38008 -11.1776
head 12.7763 -0.0174766 -2.70346
rclavicle -6.2816e-014 -1.74931e-014
rhumerus 31.4005 11.0561 -63.7451
rradius 85.3663
rwrist 35.9942
rhand -35.2266 18.9836
rfingers 7.12502
rthumb -8.36342 -10.8309
lclavicle -6.2816e-014 -1.74931e-014
lhumerus -28.0255 11.6526 73.1803
lradius 30.9789
lwrist -20.2761
lhand -10.579 30.946
lfingers 7.12502
lthumb 15.4261 60.3504
rfemur -16.5755 5.09641 15.3466
rtibia 21.943
rfoot -10.3004 -5.4113
rtoes -10.7777
lfemur -12.1528 -6.81134 -13.3078
ltibia 21.3819
lfoot -8.75186 -7.48572
ltoes 9.55437
150
root 4.98195 18.5173 -7.39292 6.26857 20.2749 1.37936
lowerback 1.81618 0.795955 -3.94425
upperback 4.89508 1.26572 -4.18283
thorax 4.0544 0.590559 -2.0946
lowerneck -3.79822 -0.878265 -6.38997
upperneck 35.0329 4.20319 -11.4203
head 12.5469 -0.0989066 -2.78729
rclavicle 5.56597e-014 -3.97569e-014
rhumerus 30.9267 11.1571 -63.6534
rradius 86.227
rwrist 36.1834
rhand -35.4591 17.9705
rfingers 7.12502
rthumb -8.58785 -11.8349
lclavicle 5.56597e-014 -3.97569e-014
lhumerus -28.0785 12.2447 72.8298
lradius 30.9881
lwrist -21.0645
lhand -9.7589 30.2483
lfingers 7.12502
lthumb 16.2158 59.5901
rfemur -16.5963 4.69595 15.589
rtibia 22.0378
rfoot -10.3272 -5.43189
rtoes -7.78829
lfemur -12.4307 -6.38264 -13.1985
ltibia 21.9266
lfoot -8.80441 -7.24535
ltoes 8.207
151
root 4.9199 18.5182 -7.34866 6.29175 20.7075 1.54967
lowerback 1.9003 0.875218 -4.2657
upperback 4.93815 1.38083 -4.39796
thorax 4.0542 0.64206 -2.13858
lowerneck -3.64993 -1.12243 -6.244
upperneck 34.5618 3.79718 -11.5925
head 12.2959 -0.249513 -2.89911
rclavicle 6.67916e-014 -3.65764e-014
rhumerus 30.5571 11.0291 -63.499
rradius 86.9064
rwrist 36.4282
rhand -35.5472 18.1097
rfingers 7.12502
rthumb -8.67286 -11.6921
lclavicle 6.67916e-014 -3.65764e-014
lhumerus -27.8173 12.4506 72.6117
lradius 30.7017
lwrist -21.3511
lhand -9.54766 29.9035
lfingers 7.12502
lthumb 16.4192 59.2286
rfemur -16.31 3.8223 15.7996
rtibia 22.0959
rfoot -10.5728 -5.10614
rtoes -6.13728
lfemur -12.6937 -5.68664 -13.2868
ltibia 22.5858
lfoot -9.08778 -7.20536
ltoes 6.36778
152
root 4.85892 18.5125 -7.30635 6.30771 21.2158 1.34569
lowerback 1.87853 1.01247 -4.15514
upperback 4.97604 1.57468 -4.53972
thorax 4.11519 0.746634 -2.34458
lowerneck -3.71959 -1.33238 -6.26755
upperneck 34.2552 3.51623 -11.7213
head 12.1707 -0.374765 -2.95939
rclavicle 5.00937e-014 2.70347e-014
rhumerus 30.2545 10.4526 -63.5001
rradius 87.4244
rwrist 37.0487
rhand -35.1166 17.4528
rfingers 7.12502
rthumb -8.2573 -12.3658
lclavicle 5.00937e-014 2.70347e-014
lhumerus -27.348 11.7582 72.6721
lradius 30.3961
lwrist -20.4311
lhand -9.97333 30.252
lfingers 7.12502
lthumb 16.0093 59.6105
rfemur -16.3117 4.33104 16.1891
rtibia 22.1814
rfoot -10.9077 -5.93201
rtoes -5.60814
lfemur -13.1803 -4.75094 -12.9735
ltibia 23.2421
lfoot -9.29246 -6.53701
ltoes 4.38565
153
root 4.81405 18.5039 -7.2762 6.58866 21.6304 1.12355
lowerback 1.63953 1.0954 -3.80602
upperback 4.90454 1.70273 -4.7124
thorax 4.19199 0.828065 -2.71312
lowerneck -3.69918 -1.36266 -7.20681
upperneck 33.8185 3.36518 -11.084
head 11.9686 -0.463164 -2.54224
rclavicle -1.82882e-014 -1.11319e-014
rhumerus 29.9784 9.84244 -63.7421
rradius 88.182
rwrist 37.895
rhand -33.6271 17.2291
rfingers 7.12502
rthumb -6.81957 -12.6411
lclavicle -1.82882e-014 -1.11319e-014
lhumerus -27.1309 11.1209 72.7367
lradius 30.4395
lwrist -19.2681
lhand -10.2755 30.8428
lfingers 7.12502
lthumb 15.7183 60.2245
rfemur -16.6355 4.71958 16.5101
rtibia 22.2498
rfoot -11.0929 -6.62443
rtoes -5.86869
lfemur -13.9226 -3.89114 -12.6955
ltibia 23.8531
lfoot -9.27418 -5.23037
ltoes 3.08053
154
root 4.7674 18.4982 -7.24809 6.71565 22.0568 0.989612
lowerback 1.58173 1.08899 -3.73747
upperback 4.88326 1.69977 -4.77859
thorax 4.20659 0.831217 -2.81954
lowerneck -3.43802 -1.45713 -7.93581
upperneck 33.0123 3.07843 -10.7264
head 11.5706 -0.589058 -2.27196
rclavicle 5.28767e-014 2.22639e-014
rhumerus 29.8115 8.89074 -64.0676
rradius 87.8676
rwrist 41.6691
rhand -36.3271 22.2796
rfingers 7.12502
rthumb -9.42541 -7.48962
lclavicle 5.28767e-014 2.22639e-014
lhumerus -27.141 10.8733 72.8606
lradius 30.6959
lwrist -18.4669
lhand -10.9266 30.8775
lfingers 7.12502
lthumb 15.0912 60.3074
rfemur -16.7472 3.97341 16.8765
rtibia 22.1923
rfoot -11.0458 -6.25755
rtoes -3.35102
lfemur -14.5058 -3.00766 -12.569
ltibia 24.4598
lfoot -9.34148 -4.16811
ltoes 0.969101
155
root 4.7141 18.4962 -7.21647 6.45214 22.6144 0.769009
lowerback 1.94332 1.10344 -3.68663
upperback 4.9387 1.69962 -4.80488
thorax 4.06215 0.835956 -2.8819
lowerneck -3.60824 -1.71693 -7.7001
upperneck 32.7676 2.81361 -11.2124
head 11.5077 -0.722352 -2.51508
rclavicle -7.71285e-014 4.45278e-014
rhumerus 29.6963 7.69966 -64.4842
rradius 87.399
rwrist 43.0242
rhand -36.6655 28.1941
rfingers 7.12502
rthumb -9.75196 -1.56008
lclavicle -7.71285e-014 4.45278e-014
lhumerus -27.1495 10.9284 72.8996
lradius 30.8916
lwrist -18.172
lhand -11.6905 30.2226
lfingers 7.12502
lthumb 14.3552 59.7062
rfemur -16.5067 3.2422 17.3935
rtibia 22.2235
rfoot -11.0083 -5.93983
rtoes -0.134187
lfemur -14.6909 -2.04473 -12.3353
ltibia 24.9599
lfoot -9.76995 -3.23595
ltoes -1.40882
156
root 4.66346 18.496 -7.1789 6.42653 22.975 0.704862
lowerback 1.98049 1.23328 -3.72
upperback 4.97355 1.88166 -4.97744
thorax 4.08881 0.930829 -3.04157
lowerneck -3.84854 -1.95673 -7.60268
upperneck 32.704 2.56737 -11.4635
head 11.528 -0.849984 -2.65201
rclavicle 2.0276e-014 2.70347e-014
rhumerus 29.5069 6.77825 -64.9492
rradius 87.3343
rwrist 43.7297
rhand -36.2902 30.0885
rfingers 7.12502
rthumb -9.38985 0.317664
lclavicle 2.0276e-014 2.70347e-014
lhumerus -27.0511 10.9345 72.768
lradius 31.0116
lwrist -17.7703
lhand -12.0861 29.1421
lfingers 7.12502
lthumb 13.9741 58.6525
rfemur -16.5116 2.74494 17.7221
rtibia 22.3583
rfoot -11.1122 -5.78332
rtoes 0.172605
lfemur -14.8868 -1.15292 -12.248
ltibia 25.2894
lfoot -10.2138 -1.79049
ltoes -2.22386
157
root 4.61983 18.4946 -7.139 6.69326 23.263 0.790575
lowerback 1.6487 1.24807 -3.99239
upperback 4.96667 1.93341 -5.09083
thorax 4.26851 0.947865 -3.00026
lowerneck -3.86507 -2.07602 -7.96758
upperneck 32.1968 2.44364 -11.6479
head 11.3352 -0.939647 -2.64919
rclavicle 6.36111e-015 -2.22639e-014
rhumerus 29.4837 6.42982 -65.2898
rradius 87.6397
rwrist 43.7454
rhand -34.8592 30.858
rfingers 7.12502
rthumb -8.00884 1.02971
lclavicle 6.36111e-015 -2.22639e-014
lhumerus -27.1961 10.9588 72.692
lradius 31.3427
lwrist -17.2219
lhand -12.7742 27.8954
lfingers 7.12502
lthumb 13.3108 57.4503
rfemur -16.6057 2.23453 17.8838
rtibia 22.3103
rfoot -11.2481 -5.66651
rtoes -1.7292
lfemur -15.3394 -0.241778 -12.3969
ltibia 25.6713
lfoot -10.6855 0.199471
ltoes -4.36064
158
root 4.57756 18.5063 -7.09908 6.75494 23.6882 0.531902
lowerback 1.42998 1.17828 -3.96595
upperback 4.92968 1.85412 -5.08753
thorax 4.3523 0.908508 -3.0089
lowerneck -3.9618 -2.17675 -8.27963
upperneck 31.781 2.37617 -11.8878
head 11.2002 -1.01083 -2.67608
rclavicle -9.54166e-015 -3.49861e-014
rhumerus 29.4718 6.61939 -65.3505
rradius 88.1848
rwrist 42.3886
rhand -33.1018 30.3052
rfingers 7.12502
rthumb -6.31249 0.419228
lclavicle -9.54166e-015 -3.49861e-014
lhumerus -27.5289 11.0181 72.6338
lradius 31.9755
lwrist -17.4208
lhand -12.607 28.5478
lfingers 7.12502
lthumb 13.472 58.0921
rfemur -16.4781 1.95635 18.4203
rtibia 22.1859
rfoot -11.2487 -5.95398
rtoes -4.31139
lfemur -15.7418 0.787605 -12.1877
ltibia 26.081
lfoot -11.272 1.6785
ltoes -4.59981
159
root 4.53446 18.5022 -7.06989 6.56371 24.1622 0.00300447
lowerback 1.71242 1.20342 -3.34341
upperback 4.71786 1.85368 -5.27078
thorax 3.99417 0.939473 -3.5545
lowerneck -3.70904 -2.30612 -8.32082
upperneck 31.4213 2.11584 -11.8929
head 10.9975 -1.10425 -2.67681
rclavicle -4.09496e-014 3.65764e-014
rhumerus 28.9673 6.80527 -65.5282
rradius 89.249
rwrist 40.6095
rhand -30.8516 27.5583
rfingers 7.12502
rthumb -4.13983 -2.38127
lclavicle -4.09496e-014 3.65764e-014
lhumerus -27.9621 10.7591 72.2594
lradius 32.5249
lwrist -17.7825
lhand -11.752 29.859
lfingers 7.12502
lthumb 14.296 59.3468
rfemur -16.4505 2.48415 19.0056
rtibia 22.068
rfoot -11.3136 -6.44643
rtoes -0.598322
lfemur -16.0634 1.67263 -11.6227
ltibia 26.5102
lfoot -11.6365 2.99642
ltoes -0.920019
160
root 4.49138 18.4958 -7.04765 6.50087 24.6821 0.00906628
lowerback 2.34164 1.19582 -3.16091
upperback 4.41955 1.79242 -5.62452
thorax 3.34311 0.926608 -4.04141
lowerneck -3.34893 -2.41316 -8.27835
upperneck 30.9913 1.88158 -12.0037
head 10.7489 -1.17999 -2.72307
rclavicle 5.76476e-014 3.49861e-014
rhumerus 28.3013 6.83522 -66.0451
rradius 90.3032
rwrist 39.0821
rhand -28.2883 24.6577
rfingers 7.12502
rthumb -1.66433 -5.31556
lclavicle 5.76476e-014 3.49861e-014
lhumerus -28.546 10.3497 71.7618
lradius 32.932
lwrist -17.7988
lhand -11.3373 29.4575
lfingers 7.12502
lthumb 14.6955 58.9166
rfemur -16.3958 2.35657 19.1821
rtibia 21.9674
rfoot -11.2208 -6.86309
rtoes -2.6367
lfemur -16.3325 2.51485 -11.6496
ltibia 26.9048
lfoot -11.8701 4.86583
ltoes -1.02608
161
root 4.44487 18.4945 -7.03057 6.48591 25.7024 0.467924
lowerback 2.82178 0.952632 -3.86235
upperback 4.55209 1.44631 -5.68569
thorax 3.18127 0.73527 -3.7213
lowerneck -3.55654 -2.54475 -8.6353
upperneck 30.5864 1.80234 -12.2851
head 10.6469 -1.26608 -2.76007
rclavicle -3.53837e-014 -1.11319e-014
rhumerus 28.4225 6.88347 -66.2555
rradius 90.8527
rwrist 37.2748
rhand -26.5455 22.467
rfingers 7.12502
rthumb 0.0189022 -7.51274
lclavicle -3.53837e-014 -1.11319e-014
lhumerus -28.7301 10.3692 71.8591
lradius 33.5432
lwrist -17.5502
lhand -11.1044 28.9919
lfingers 7.12502
lthumb 14.9199 58.4346
rfemur -15.9491 2.23553 18.9038
rtibia 21.7609
rfoot -11.1578 -7.7848
rtoes -3.67731
lfemur -16.5805 2.58245 -12.1185
ltibia 27.334
lfoot -12.2458 6.85207
ltoes -3.53904
